<svg width="64" height="64" viewBox="0 0 64 64" fill="none" xmlns="http://www.w3.org/2000/svg" role="img" aria-label="Vtourist">
  <defs>
    <linearGradient id="vt-bg" x1="10" y1="6" x2="54" y2="58" gradientUnits="userSpaceOnUse">
      <stop offset="0" stop-color="#0891b2"/>
      <stop offset="0.55" stop-color="#0ea5e9"/>
      <stop offset="1" stop-color="#0284c7"/>
    </linearGradient>
    <linearGradient id="vt-needle" x1="32" y1="14" x2="32" y2="32" gradientUnits="userSpaceOnUse">
      <stop offset="0" stop-color="#fde68a"/>
      <stop offset="1" stop-color="#f59e0b"/>
    </linearGradient>
    <radialGradient id="vt-glow" cx="0.5" cy="0.38" r="0.62">
      <stop offset="0" stop-color="#ffffff" stop-opacity="0.34"/>
      <stop offset="1" stop-color="#ffffff" stop-opacity="0"/>
    </radialGradient>
  </defs>

  <rect x="2" y="2" width="60" height="60" rx="16" fill="url(#vt-bg)"/>
  <rect x="2" y="2" width="60" height="60" rx="16" fill="url(#vt-glow)"/>
  <rect x="2.5" y="2.5" width="59" height="59" rx="15.5" fill="none" stroke="#ffffff" stroke-opacity="0.18"/>

  <circle cx="32" cy="32" r="20" fill="none" stroke="#ffffff" stroke-opacity="0.35" stroke-width="1.6"/>
  <ellipse cx="32" cy="32" rx="11" ry="20" fill="none" stroke="#ffffff" stroke-opacity="0.22" stroke-width="1.3"/>
  <line x1="12" y1="32" x2="52" y2="32" stroke="#ffffff" stroke-opacity="0.22" stroke-width="1.3"/>

  <g transform="rotate(40 32 32)">
    <path d="M32 13 L37 32 L32 28 Z" fill="url(#vt-needle)"/>
    <path d="M32 13 L27 32 L32 28 Z" fill="#fbbf24" fill-opacity="0.85"/>
    <path d="M32 51 L37 32 L32 36 Z" fill="#ffffff" fill-opacity="0.92"/>
    <path d="M32 51 L27 32 L32 36 Z" fill="#e0f2fe" fill-opacity="0.85"/>
  </g>

  <circle cx="32" cy="32" r="3.4" fill="#ffffff"/>
  <circle cx="32" cy="32" r="1.7" fill="#f59e0b"/>
</svg>
